M48
; DRILL file {KiCad (6.0.5)} date Thu May  4 10:02:11 2023
; FORMAT={-:-/ absolute / metric / decimal}
; #@! TF.CreationDate,2023-05-04T10:02:11-06:00
; #@! TF.GenerationSoftware,Kicad,Pcbnew,(6.0.5)
; #@! TF.FileFunction,Plated,1,2,PTH
FMAT,2
METRIC
; #@! TA.AperFunction,Plated,PTH,ViaDrill
T1C0.400
; #@! TA.AperFunction,Plated,PTH,ComponentDrill
T2C1.000
%
G90
G05
T1
X117.348Y-103.886
X120.523Y-87.376
X120.523Y-90.678
X120.65Y-81.026
X120.65Y-82.55
X121.412Y-103.632
X122.428Y-95.758
X125.222Y-103.632
X127.0Y-84.455
X127.127Y-80.264
X128.524Y-80.264
X129.032Y-103.632
X129.286Y-91.44
X130.937Y-87.63
X133.096Y-103.632
X136.017Y-98.044
X136.398Y-81.28
X136.398Y-86.233
X138.684Y-86.233
X140.589Y-86.995
X140.993Y-103.632
X143.256Y-98.552
X144.018Y-91.567
X144.78Y-86.487
X144.78Y-92.71
X144.78Y-99.187
X145.058Y-103.632
X145.542Y-80.518
X146.431Y-99.187
X147.828Y-86.233
X148.209Y-93.98
X150.368Y-93.599
X150.368Y-103.632
X153.416Y-81.407
X153.924Y-103.632
X157.988Y-103.632
T2
X118.11Y-83.82
X118.11Y-86.36
X118.11Y-88.9
X118.11Y-91.44
X118.11Y-93.98
X118.11Y-96.52
T0
M30
