%FSLAX45Y45*%
G04 Gerber Fmt 4.5, Leading zero omitted, Abs format (unit mm)*
G04 Created by KiCad (PCBNEW (6.0.5)) date 2023-05-04 10:03:02*
%MOMM*%
%LPD*%
G01*
G04 APERTURE LIST*
%TA.AperFunction,Profile*%
%ADD10C,0.100000*%
%TD*%
%ADD11C,0.200000*%
%ADD12C,0.040000*%
%ADD13C,0.100000*%
G04 APERTURE END LIST*
D10*
X11595100Y-7642900D02*
X15938500Y-7642900D01*
X15938500Y-7642900D02*
X15938500Y-10779800D01*
X15938500Y-10779800D02*
X11595100Y-10779800D01*
X11595100Y-10779800D02*
X11595100Y-7642900D01*
D11*
D12*
X11714800Y-10368600D02*
X11754800Y-10408600D01*
X11754800Y-10368600D02*
X11714800Y-10408600D01*
X12032300Y-8717600D02*
X12072300Y-8757600D01*
X12072300Y-8717600D02*
X12032300Y-8757600D01*
X12032300Y-9047800D02*
X12072300Y-9087800D01*
X12072300Y-9047800D02*
X12032300Y-9087800D01*
X12045000Y-8082600D02*
X12085000Y-8122600D01*
X12085000Y-8082600D02*
X12045000Y-8122600D01*
X12045000Y-8235000D02*
X12085000Y-8275000D01*
X12085000Y-8235000D02*
X12045000Y-8275000D01*
X12121200Y-10343200D02*
X12161200Y-10383200D01*
X12161200Y-10343200D02*
X12121200Y-10383200D01*
X12222800Y-9555800D02*
X12262800Y-9595800D01*
X12262800Y-9555800D02*
X12222800Y-9595800D01*
X12502200Y-10343200D02*
X12542200Y-10383200D01*
X12542200Y-10343200D02*
X12502200Y-10383200D01*
X12680000Y-8425500D02*
X12720000Y-8465500D01*
X12720000Y-8425500D02*
X12680000Y-8465500D01*
X12692700Y-8006400D02*
X12732700Y-8046400D01*
X12732700Y-8006400D02*
X12692700Y-8046400D01*
X12832400Y-8006400D02*
X12872400Y-8046400D01*
X12872400Y-8006400D02*
X12832400Y-8046400D01*
X12883200Y-10343200D02*
X12923200Y-10383200D01*
X12923200Y-10343200D02*
X12883200Y-10383200D01*
X12908600Y-9124000D02*
X12948600Y-9164000D01*
X12948600Y-9124000D02*
X12908600Y-9164000D01*
X13073700Y-8743000D02*
X13113700Y-8783000D01*
X13113700Y-8743000D02*
X13073700Y-8783000D01*
X13289600Y-10343200D02*
X13329600Y-10383200D01*
X13329600Y-10343200D02*
X13289600Y-10383200D01*
X13581700Y-9784400D02*
X13621700Y-9824400D01*
X13621700Y-9784400D02*
X13581700Y-9824400D01*
X13619800Y-8108000D02*
X13659800Y-8148000D01*
X13659800Y-8108000D02*
X13619800Y-8148000D01*
X13619800Y-8603300D02*
X13659800Y-8643300D01*
X13659800Y-8603300D02*
X13619800Y-8643300D01*
X13848400Y-8603300D02*
X13888400Y-8643300D01*
X13888400Y-8603300D02*
X13848400Y-8643300D01*
X14038900Y-8679500D02*
X14078900Y-8719500D01*
X14078900Y-8679500D02*
X14038900Y-8719500D01*
X14079350Y-10343200D02*
X14119350Y-10383200D01*
X14119350Y-10343200D02*
X14079350Y-10383200D01*
X14305600Y-9835200D02*
X14345600Y-9875200D01*
X14345600Y-9835200D02*
X14305600Y-9875200D01*
X14381800Y-9136700D02*
X14421800Y-9176700D01*
X14421800Y-9136700D02*
X14381800Y-9176700D01*
X14458000Y-8628700D02*
X14498000Y-8668700D01*
X14498000Y-8628700D02*
X14458000Y-8668700D01*
X14458000Y-9251000D02*
X14498000Y-9291000D01*
X14498000Y-9251000D02*
X14458000Y-9291000D01*
X14458000Y-9898700D02*
X14498000Y-9938700D01*
X14498000Y-9898700D02*
X14458000Y-9938700D01*
X14485750Y-10343200D02*
X14525750Y-10383200D01*
X14525750Y-10343200D02*
X14485750Y-10383200D01*
X14534200Y-8031800D02*
X14574200Y-8071800D01*
X14574200Y-8031800D02*
X14534200Y-8071800D01*
X14623100Y-9898700D02*
X14663100Y-9938700D01*
X14663100Y-9898700D02*
X14623100Y-9938700D01*
X14762800Y-8603300D02*
X14802800Y-8643300D01*
X14802800Y-8603300D02*
X14762800Y-8643300D01*
X14800900Y-9378000D02*
X14840900Y-9418000D01*
X14840900Y-9378000D02*
X14800900Y-9418000D01*
X15016800Y-9339900D02*
X15056800Y-9379900D01*
X15056800Y-9339900D02*
X15016800Y-9379900D01*
X15016800Y-10343200D02*
X15056800Y-10383200D01*
X15056800Y-10343200D02*
X15016800Y-10383200D01*
X15321600Y-8120700D02*
X15361600Y-8160700D01*
X15361600Y-8120700D02*
X15321600Y-8160700D01*
X15372400Y-10343200D02*
X15412400Y-10383200D01*
X15412400Y-10343200D02*
X15372400Y-10383200D01*
X15778800Y-10343200D02*
X15818800Y-10383200D01*
X15818800Y-10343200D02*
X15778800Y-10383200D01*
D13*
X11861000Y-8382000D02*
G75*
G03*
X11861000Y-8382000I-50000J0D01*
G01*
X11861000Y-8636000D02*
G75*
G03*
X11861000Y-8636000I-50000J0D01*
G01*
X11861000Y-8890000D02*
G75*
G03*
X11861000Y-8890000I-50000J0D01*
G01*
X11861000Y-9144000D02*
G75*
G03*
X11861000Y-9144000I-50000J0D01*
G01*
X11861000Y-9398000D02*
G75*
G03*
X11861000Y-9398000I-50000J0D01*
G01*
X11861000Y-9652000D02*
G75*
G03*
X11861000Y-9652000I-50000J0D01*
G01*
D11*
X11847719Y-11095276D02*
X11847719Y-10895276D01*
X11895338Y-10895276D01*
X11923909Y-10904800D01*
X11942957Y-10923848D01*
X11952481Y-10942895D01*
X11962005Y-10980990D01*
X11962005Y-11009562D01*
X11952481Y-11047657D01*
X11942957Y-11066705D01*
X11923909Y-11085752D01*
X11895338Y-11095276D01*
X11847719Y-11095276D01*
X12047719Y-11095276D02*
X12047719Y-10961943D01*
X12047719Y-11000038D02*
X12057243Y-10980990D01*
X12066767Y-10971467D01*
X12085814Y-10961943D01*
X12104862Y-10961943D01*
X12171528Y-11095276D02*
X12171528Y-10961943D01*
X12171528Y-10895276D02*
X12162005Y-10904800D01*
X12171528Y-10914324D01*
X12181052Y-10904800D01*
X12171528Y-10895276D01*
X12171528Y-10914324D01*
X12295338Y-11095276D02*
X12276290Y-11085752D01*
X12266767Y-11066705D01*
X12266767Y-10895276D01*
X12400100Y-11095276D02*
X12381052Y-11085752D01*
X12371528Y-11066705D01*
X12371528Y-10895276D01*
X12628671Y-11095276D02*
X12628671Y-10895276D01*
X12695338Y-11038133D01*
X12762005Y-10895276D01*
X12762005Y-11095276D01*
X12942957Y-11095276D02*
X12942957Y-10990514D01*
X12933433Y-10971467D01*
X12914386Y-10961943D01*
X12876290Y-10961943D01*
X12857243Y-10971467D01*
X12942957Y-11085752D02*
X12923909Y-11095276D01*
X12876290Y-11095276D01*
X12857243Y-11085752D01*
X12847719Y-11066705D01*
X12847719Y-11047657D01*
X12857243Y-11028610D01*
X12876290Y-11019086D01*
X12923909Y-11019086D01*
X12942957Y-11009562D01*
X13038195Y-10961943D02*
X13038195Y-11161943D01*
X13038195Y-10971467D02*
X13057243Y-10961943D01*
X13095338Y-10961943D01*
X13114386Y-10971467D01*
X13123909Y-10980990D01*
X13133433Y-11000038D01*
X13133433Y-11057181D01*
X13123909Y-11076229D01*
X13114386Y-11085752D01*
X13095338Y-11095276D01*
X13057243Y-11095276D01*
X13038195Y-11085752D01*
X13219148Y-11076229D02*
X13228671Y-11085752D01*
X13219148Y-11095276D01*
X13209624Y-11085752D01*
X13219148Y-11076229D01*
X13219148Y-11095276D01*
X13219148Y-10971467D02*
X13228671Y-10980990D01*
X13219148Y-10990514D01*
X13209624Y-10980990D01*
X13219148Y-10971467D01*
X13219148Y-10990514D01*
D12*
X11550100Y-11404800D02*
X11590100Y-11444800D01*
X11590100Y-11404800D02*
X11550100Y-11444800D01*
D11*
X11885814Y-11315276D02*
X11904862Y-11315276D01*
X11923909Y-11324800D01*
X11933433Y-11334324D01*
X11942957Y-11353371D01*
X11952481Y-11391467D01*
X11952481Y-11439086D01*
X11942957Y-11477181D01*
X11933433Y-11496228D01*
X11923909Y-11505752D01*
X11904862Y-11515276D01*
X11885814Y-11515276D01*
X11866767Y-11505752D01*
X11857243Y-11496228D01*
X11847719Y-11477181D01*
X11838195Y-11439086D01*
X11838195Y-11391467D01*
X11847719Y-11353371D01*
X11857243Y-11334324D01*
X11866767Y-11324800D01*
X11885814Y-11315276D01*
X12038195Y-11496228D02*
X12047719Y-11505752D01*
X12038195Y-11515276D01*
X12028671Y-11505752D01*
X12038195Y-11496228D01*
X12038195Y-11515276D01*
X12219148Y-11381943D02*
X12219148Y-11515276D01*
X12171528Y-11305752D02*
X12123909Y-11448609D01*
X12247719Y-11448609D01*
X12362005Y-11315276D02*
X12381052Y-11315276D01*
X12400100Y-11324800D01*
X12409624Y-11334324D01*
X12419148Y-11353371D01*
X12428671Y-11391467D01*
X12428671Y-11439086D01*
X12419148Y-11477181D01*
X12409624Y-11496228D01*
X12400100Y-11505752D01*
X12381052Y-11515276D01*
X12362005Y-11515276D01*
X12342957Y-11505752D01*
X12333433Y-11496228D01*
X12323909Y-11477181D01*
X12314386Y-11439086D01*
X12314386Y-11391467D01*
X12323909Y-11353371D01*
X12333433Y-11334324D01*
X12342957Y-11324800D01*
X12362005Y-11315276D01*
X12552481Y-11315276D02*
X12571528Y-11315276D01*
X12590576Y-11324800D01*
X12600100Y-11334324D01*
X12609624Y-11353371D01*
X12619148Y-11391467D01*
X12619148Y-11439086D01*
X12609624Y-11477181D01*
X12600100Y-11496228D01*
X12590576Y-11505752D01*
X12571528Y-11515276D01*
X12552481Y-11515276D01*
X12533433Y-11505752D01*
X12523909Y-11496228D01*
X12514386Y-11477181D01*
X12504862Y-11439086D01*
X12504862Y-11391467D01*
X12514386Y-11353371D01*
X12523909Y-11334324D01*
X12533433Y-11324800D01*
X12552481Y-11315276D01*
X12704862Y-11515276D02*
X12704862Y-11381943D01*
X12704862Y-11400990D02*
X12714386Y-11391467D01*
X12733433Y-11381943D01*
X12762005Y-11381943D01*
X12781052Y-11391467D01*
X12790576Y-11410514D01*
X12790576Y-11515276D01*
X12790576Y-11410514D02*
X12800100Y-11391467D01*
X12819148Y-11381943D01*
X12847719Y-11381943D01*
X12866767Y-11391467D01*
X12876290Y-11410514D01*
X12876290Y-11515276D01*
X12971528Y-11515276D02*
X12971528Y-11381943D01*
X12971528Y-11400990D02*
X12981052Y-11391467D01*
X13000100Y-11381943D01*
X13028671Y-11381943D01*
X13047719Y-11391467D01*
X13057243Y-11410514D01*
X13057243Y-11515276D01*
X13057243Y-11410514D02*
X13066767Y-11391467D01*
X13085814Y-11381943D01*
X13114386Y-11381943D01*
X13133433Y-11391467D01*
X13142957Y-11410514D01*
X13142957Y-11515276D01*
X13533433Y-11305752D02*
X13362005Y-11562895D01*
X13790576Y-11315276D02*
X13809624Y-11315276D01*
X13828671Y-11324800D01*
X13838195Y-11334324D01*
X13847719Y-11353371D01*
X13857243Y-11391467D01*
X13857243Y-11439086D01*
X13847719Y-11477181D01*
X13838195Y-11496228D01*
X13828671Y-11505752D01*
X13809624Y-11515276D01*
X13790576Y-11515276D01*
X13771528Y-11505752D01*
X13762005Y-11496228D01*
X13752481Y-11477181D01*
X13742957Y-11439086D01*
X13742957Y-11391467D01*
X13752481Y-11353371D01*
X13762005Y-11334324D01*
X13771528Y-11324800D01*
X13790576Y-11315276D01*
X13942957Y-11496228D02*
X13952481Y-11505752D01*
X13942957Y-11515276D01*
X13933433Y-11505752D01*
X13942957Y-11496228D01*
X13942957Y-11515276D01*
X14076290Y-11315276D02*
X14095338Y-11315276D01*
X14114386Y-11324800D01*
X14123909Y-11334324D01*
X14133433Y-11353371D01*
X14142957Y-11391467D01*
X14142957Y-11439086D01*
X14133433Y-11477181D01*
X14123909Y-11496228D01*
X14114386Y-11505752D01*
X14095338Y-11515276D01*
X14076290Y-11515276D01*
X14057243Y-11505752D01*
X14047719Y-11496228D01*
X14038195Y-11477181D01*
X14028671Y-11439086D01*
X14028671Y-11391467D01*
X14038195Y-11353371D01*
X14047719Y-11334324D01*
X14057243Y-11324800D01*
X14076290Y-11315276D01*
X14333433Y-11515276D02*
X14219148Y-11515276D01*
X14276290Y-11515276D02*
X14276290Y-11315276D01*
X14257243Y-11343848D01*
X14238195Y-11362895D01*
X14219148Y-11372419D01*
X14514386Y-11315276D02*
X14419148Y-11315276D01*
X14409624Y-11410514D01*
X14419148Y-11400990D01*
X14438195Y-11391467D01*
X14485814Y-11391467D01*
X14504862Y-11400990D01*
X14514386Y-11410514D01*
X14523909Y-11429562D01*
X14523909Y-11477181D01*
X14514386Y-11496228D01*
X14504862Y-11505752D01*
X14485814Y-11515276D01*
X14438195Y-11515276D01*
X14419148Y-11505752D01*
X14409624Y-11496228D01*
X14590576Y-11315276D02*
X14723909Y-11315276D01*
X14638195Y-11515276D01*
X14790576Y-11315276D02*
X14790576Y-11353371D01*
X14866767Y-11315276D02*
X14866767Y-11353371D01*
X15162005Y-11591467D02*
X15152481Y-11581943D01*
X15133433Y-11553371D01*
X15123909Y-11534324D01*
X15114386Y-11505752D01*
X15104862Y-11458133D01*
X15104862Y-11420038D01*
X15114386Y-11372419D01*
X15123909Y-11343848D01*
X15133433Y-11324800D01*
X15152481Y-11296228D01*
X15162005Y-11286705D01*
X15219148Y-11315276D02*
X15342957Y-11315276D01*
X15276290Y-11391467D01*
X15304862Y-11391467D01*
X15323909Y-11400990D01*
X15333433Y-11410514D01*
X15342957Y-11429562D01*
X15342957Y-11477181D01*
X15333433Y-11496228D01*
X15323909Y-11505752D01*
X15304862Y-11515276D01*
X15247719Y-11515276D01*
X15228671Y-11505752D01*
X15219148Y-11496228D01*
X15514386Y-11315276D02*
X15476290Y-11315276D01*
X15457243Y-11324800D01*
X15447719Y-11334324D01*
X15428671Y-11362895D01*
X15419148Y-11400990D01*
X15419148Y-11477181D01*
X15428671Y-11496228D01*
X15438195Y-11505752D01*
X15457243Y-11515276D01*
X15495338Y-11515276D01*
X15514386Y-11505752D01*
X15523909Y-11496228D01*
X15533433Y-11477181D01*
X15533433Y-11429562D01*
X15523909Y-11410514D01*
X15514386Y-11400990D01*
X15495338Y-11391467D01*
X15457243Y-11391467D01*
X15438195Y-11400990D01*
X15428671Y-11410514D01*
X15419148Y-11429562D01*
X15771528Y-11515276D02*
X15771528Y-11315276D01*
X15857243Y-11515276D02*
X15857243Y-11410514D01*
X15847719Y-11391467D01*
X15828671Y-11381943D01*
X15800100Y-11381943D01*
X15781052Y-11391467D01*
X15771528Y-11400990D01*
X15981052Y-11515276D02*
X15962005Y-11505752D01*
X15952481Y-11496228D01*
X15942957Y-11477181D01*
X15942957Y-11420038D01*
X15952481Y-11400990D01*
X15962005Y-11391467D01*
X15981052Y-11381943D01*
X16009624Y-11381943D01*
X16028671Y-11391467D01*
X16038195Y-11400990D01*
X16047719Y-11420038D01*
X16047719Y-11477181D01*
X16038195Y-11496228D01*
X16028671Y-11505752D01*
X16009624Y-11515276D01*
X15981052Y-11515276D01*
X16162005Y-11515276D02*
X16142957Y-11505752D01*
X16133433Y-11486705D01*
X16133433Y-11315276D01*
X16314386Y-11505752D02*
X16295338Y-11515276D01*
X16257243Y-11515276D01*
X16238195Y-11505752D01*
X16228671Y-11486705D01*
X16228671Y-11410514D01*
X16238195Y-11391467D01*
X16257243Y-11381943D01*
X16295338Y-11381943D01*
X16314386Y-11391467D01*
X16323909Y-11410514D01*
X16323909Y-11429562D01*
X16228671Y-11448609D01*
X16400100Y-11505752D02*
X16419148Y-11515276D01*
X16457243Y-11515276D01*
X16476290Y-11505752D01*
X16485814Y-11486705D01*
X16485814Y-11477181D01*
X16476290Y-11458133D01*
X16457243Y-11448609D01*
X16428671Y-11448609D01*
X16409624Y-11439086D01*
X16400100Y-11420038D01*
X16400100Y-11410514D01*
X16409624Y-11391467D01*
X16428671Y-11381943D01*
X16457243Y-11381943D01*
X16476290Y-11391467D01*
X16552481Y-11591467D02*
X16562005Y-11581943D01*
X16581052Y-11553371D01*
X16590576Y-11534324D01*
X16600100Y-11505752D01*
X16609624Y-11458133D01*
X16609624Y-11420038D01*
X16600100Y-11372419D01*
X16590576Y-11343848D01*
X16581052Y-11324800D01*
X16562005Y-11296228D01*
X16552481Y-11286705D01*
D13*
X11590100Y-11688800D02*
G75*
G03*
X11590100Y-11688800I-50000J0D01*
G01*
D11*
X11952481Y-11779276D02*
X11838195Y-11779276D01*
X11895338Y-11779276D02*
X11895338Y-11579276D01*
X11876290Y-11607848D01*
X11857243Y-11626895D01*
X11838195Y-11636419D01*
X12038195Y-11760228D02*
X12047719Y-11769752D01*
X12038195Y-11779276D01*
X12028671Y-11769752D01*
X12038195Y-11760228D01*
X12038195Y-11779276D01*
X12171528Y-11579276D02*
X12190576Y-11579276D01*
X12209624Y-11588800D01*
X12219148Y-11598324D01*
X12228671Y-11617371D01*
X12238195Y-11655467D01*
X12238195Y-11703086D01*
X12228671Y-11741181D01*
X12219148Y-11760228D01*
X12209624Y-11769752D01*
X12190576Y-11779276D01*
X12171528Y-11779276D01*
X12152481Y-11769752D01*
X12142957Y-11760228D01*
X12133433Y-11741181D01*
X12123909Y-11703086D01*
X12123909Y-11655467D01*
X12133433Y-11617371D01*
X12142957Y-11598324D01*
X12152481Y-11588800D01*
X12171528Y-11579276D01*
X12362005Y-11579276D02*
X12381052Y-11579276D01*
X12400100Y-11588800D01*
X12409624Y-11598324D01*
X12419148Y-11617371D01*
X12428671Y-11655467D01*
X12428671Y-11703086D01*
X12419148Y-11741181D01*
X12409624Y-11760228D01*
X12400100Y-11769752D01*
X12381052Y-11779276D01*
X12362005Y-11779276D01*
X12342957Y-11769752D01*
X12333433Y-11760228D01*
X12323909Y-11741181D01*
X12314386Y-11703086D01*
X12314386Y-11655467D01*
X12323909Y-11617371D01*
X12333433Y-11598324D01*
X12342957Y-11588800D01*
X12362005Y-11579276D01*
X12552481Y-11579276D02*
X12571528Y-11579276D01*
X12590576Y-11588800D01*
X12600100Y-11598324D01*
X12609624Y-11617371D01*
X12619148Y-11655467D01*
X12619148Y-11703086D01*
X12609624Y-11741181D01*
X12600100Y-11760228D01*
X12590576Y-11769752D01*
X12571528Y-11779276D01*
X12552481Y-11779276D01*
X12533433Y-11769752D01*
X12523909Y-11760228D01*
X12514386Y-11741181D01*
X12504862Y-11703086D01*
X12504862Y-11655467D01*
X12514386Y-11617371D01*
X12523909Y-11598324D01*
X12533433Y-11588800D01*
X12552481Y-11579276D01*
X12704862Y-11779276D02*
X12704862Y-11645943D01*
X12704862Y-11664990D02*
X12714386Y-11655467D01*
X12733433Y-11645943D01*
X12762005Y-11645943D01*
X12781052Y-11655467D01*
X12790576Y-11674514D01*
X12790576Y-11779276D01*
X12790576Y-11674514D02*
X12800100Y-11655467D01*
X12819148Y-11645943D01*
X12847719Y-11645943D01*
X12866767Y-11655467D01*
X12876290Y-11674514D01*
X12876290Y-11779276D01*
X12971528Y-11779276D02*
X12971528Y-11645943D01*
X12971528Y-11664990D02*
X12981052Y-11655467D01*
X13000100Y-11645943D01*
X13028671Y-11645943D01*
X13047719Y-11655467D01*
X13057243Y-11674514D01*
X13057243Y-11779276D01*
X13057243Y-11674514D02*
X13066767Y-11655467D01*
X13085814Y-11645943D01*
X13114386Y-11645943D01*
X13133433Y-11655467D01*
X13142957Y-11674514D01*
X13142957Y-11779276D01*
X13533433Y-11569752D02*
X13362005Y-11826895D01*
X13790576Y-11579276D02*
X13809624Y-11579276D01*
X13828671Y-11588800D01*
X13838195Y-11598324D01*
X13847719Y-11617371D01*
X13857243Y-11655467D01*
X13857243Y-11703086D01*
X13847719Y-11741181D01*
X13838195Y-11760228D01*
X13828671Y-11769752D01*
X13809624Y-11779276D01*
X13790576Y-11779276D01*
X13771528Y-11769752D01*
X13762005Y-11760228D01*
X13752481Y-11741181D01*
X13742957Y-11703086D01*
X13742957Y-11655467D01*
X13752481Y-11617371D01*
X13762005Y-11598324D01*
X13771528Y-11588800D01*
X13790576Y-11579276D01*
X13942957Y-11760228D02*
X13952481Y-11769752D01*
X13942957Y-11779276D01*
X13933433Y-11769752D01*
X13942957Y-11760228D01*
X13942957Y-11779276D01*
X14076290Y-11579276D02*
X14095338Y-11579276D01*
X14114386Y-11588800D01*
X14123909Y-11598324D01*
X14133433Y-11617371D01*
X14142957Y-11655467D01*
X14142957Y-11703086D01*
X14133433Y-11741181D01*
X14123909Y-11760228D01*
X14114386Y-11769752D01*
X14095338Y-11779276D01*
X14076290Y-11779276D01*
X14057243Y-11769752D01*
X14047719Y-11760228D01*
X14038195Y-11741181D01*
X14028671Y-11703086D01*
X14028671Y-11655467D01*
X14038195Y-11617371D01*
X14047719Y-11598324D01*
X14057243Y-11588800D01*
X14076290Y-11579276D01*
X14209624Y-11579276D02*
X14333433Y-11579276D01*
X14266767Y-11655467D01*
X14295338Y-11655467D01*
X14314386Y-11664990D01*
X14323909Y-11674514D01*
X14333433Y-11693562D01*
X14333433Y-11741181D01*
X14323909Y-11760228D01*
X14314386Y-11769752D01*
X14295338Y-11779276D01*
X14238195Y-11779276D01*
X14219148Y-11769752D01*
X14209624Y-11760228D01*
X14428671Y-11779276D02*
X14466767Y-11779276D01*
X14485814Y-11769752D01*
X14495338Y-11760228D01*
X14514386Y-11731657D01*
X14523909Y-11693562D01*
X14523909Y-11617371D01*
X14514386Y-11598324D01*
X14504862Y-11588800D01*
X14485814Y-11579276D01*
X14447719Y-11579276D01*
X14428671Y-11588800D01*
X14419148Y-11598324D01*
X14409624Y-11617371D01*
X14409624Y-11664990D01*
X14419148Y-11684038D01*
X14428671Y-11693562D01*
X14447719Y-11703086D01*
X14485814Y-11703086D01*
X14504862Y-11693562D01*
X14514386Y-11684038D01*
X14523909Y-11664990D01*
X14695338Y-11645943D02*
X14695338Y-11779276D01*
X14647719Y-11569752D02*
X14600100Y-11712609D01*
X14723909Y-11712609D01*
X14790576Y-11579276D02*
X14790576Y-11617371D01*
X14866767Y-11579276D02*
X14866767Y-11617371D01*
X15162005Y-11855467D02*
X15152481Y-11845943D01*
X15133433Y-11817371D01*
X15123909Y-11798324D01*
X15114386Y-11769752D01*
X15104862Y-11722133D01*
X15104862Y-11684038D01*
X15114386Y-11636419D01*
X15123909Y-11607848D01*
X15133433Y-11588800D01*
X15152481Y-11560228D01*
X15162005Y-11550705D01*
X15323909Y-11579276D02*
X15285814Y-11579276D01*
X15266767Y-11588800D01*
X15257243Y-11598324D01*
X15238195Y-11626895D01*
X15228671Y-11664990D01*
X15228671Y-11741181D01*
X15238195Y-11760228D01*
X15247719Y-11769752D01*
X15266767Y-11779276D01*
X15304862Y-11779276D01*
X15323909Y-11769752D01*
X15333433Y-11760228D01*
X15342957Y-11741181D01*
X15342957Y-11693562D01*
X15333433Y-11674514D01*
X15323909Y-11664990D01*
X15304862Y-11655467D01*
X15266767Y-11655467D01*
X15247719Y-11664990D01*
X15238195Y-11674514D01*
X15228671Y-11693562D01*
X15581052Y-11779276D02*
X15581052Y-11579276D01*
X15666767Y-11779276D02*
X15666767Y-11674514D01*
X15657243Y-11655467D01*
X15638195Y-11645943D01*
X15609624Y-11645943D01*
X15590576Y-11655467D01*
X15581052Y-11664990D01*
X15790576Y-11779276D02*
X15771528Y-11769752D01*
X15762005Y-11760228D01*
X15752481Y-11741181D01*
X15752481Y-11684038D01*
X15762005Y-11664990D01*
X15771528Y-11655467D01*
X15790576Y-11645943D01*
X15819148Y-11645943D01*
X15838195Y-11655467D01*
X15847719Y-11664990D01*
X15857243Y-11684038D01*
X15857243Y-11741181D01*
X15847719Y-11760228D01*
X15838195Y-11769752D01*
X15819148Y-11779276D01*
X15790576Y-11779276D01*
X15971528Y-11779276D02*
X15952481Y-11769752D01*
X15942957Y-11750705D01*
X15942957Y-11579276D01*
X16123909Y-11769752D02*
X16104862Y-11779276D01*
X16066767Y-11779276D01*
X16047719Y-11769752D01*
X16038195Y-11750705D01*
X16038195Y-11674514D01*
X16047719Y-11655467D01*
X16066767Y-11645943D01*
X16104862Y-11645943D01*
X16123909Y-11655467D01*
X16133433Y-11674514D01*
X16133433Y-11693562D01*
X16038195Y-11712609D01*
X16209624Y-11769752D02*
X16228671Y-11779276D01*
X16266767Y-11779276D01*
X16285814Y-11769752D01*
X16295338Y-11750705D01*
X16295338Y-11741181D01*
X16285814Y-11722133D01*
X16266767Y-11712609D01*
X16238195Y-11712609D01*
X16219148Y-11703086D01*
X16209624Y-11684038D01*
X16209624Y-11674514D01*
X16219148Y-11655467D01*
X16238195Y-11645943D01*
X16266767Y-11645943D01*
X16285814Y-11655467D01*
X16362005Y-11855467D02*
X16371528Y-11845943D01*
X16390576Y-11817371D01*
X16400100Y-11798324D01*
X16409624Y-11769752D01*
X16419148Y-11722133D01*
X16419148Y-11684038D01*
X16409624Y-11636419D01*
X16400100Y-11607848D01*
X16390576Y-11588800D01*
X16371528Y-11560228D01*
X16362005Y-11550705D01*
M02*
