%TF.GenerationSoftware,KiCad,Pcbnew,(6.0.5)*%
%TF.CreationDate,2023-05-04T10:00:39-06:00*%
%TF.ProjectId,NES_JP_MOD,4e45535f-4a50-45f4-9d4f-442e6b696361,rev?*%
%TF.SameCoordinates,Original*%
%TF.FileFunction,Paste,Top*%
%TF.FilePolarity,Positive*%
%FSLAX46Y46*%
G04 Gerber Fmt 4.6, Leading zero omitted, Abs format (unit mm)*
G04 Created by KiCad (PCBNEW (6.0.5)) date 2023-05-04 10:00:39*
%MOMM*%
%LPD*%
G01*
G04 APERTURE LIST*
G04 Aperture macros list*
%AMRoundRect*
0 Rectangle with rounded corners*
0 $1 Rounding radius*
0 $2 $3 $4 $5 $6 $7 $8 $9 X,Y pos of 4 corners*
0 Add a 4 corners polygon primitive as box body*
4,1,4,$2,$3,$4,$5,$6,$7,$8,$9,$2,$3,0*
0 Add four circle primitives for the rounded corners*
1,1,$1+$1,$2,$3*
1,1,$1+$1,$4,$5*
1,1,$1+$1,$6,$7*
1,1,$1+$1,$8,$9*
0 Add four rect primitives between the rounded corners*
20,1,$1+$1,$2,$3,$4,$5,0*
20,1,$1+$1,$4,$5,$6,$7,0*
20,1,$1+$1,$6,$7,$8,$9,0*
20,1,$1+$1,$8,$9,$2,$3,0*%
G04 Aperture macros list end*
%ADD10RoundRect,0.250000X0.262500X0.450000X-0.262500X0.450000X-0.262500X-0.450000X0.262500X-0.450000X0*%
%ADD11RoundRect,0.250000X-0.262500X-0.450000X0.262500X-0.450000X0.262500X0.450000X-0.262500X0.450000X0*%
%ADD12RoundRect,0.250000X-0.475000X0.250000X-0.475000X-0.250000X0.475000X-0.250000X0.475000X0.250000X0*%
%ADD13RoundRect,0.250000X-0.450000X0.262500X-0.450000X-0.262500X0.450000X-0.262500X0.450000X0.262500X0*%
%ADD14RoundRect,0.250000X0.250000X0.475000X-0.250000X0.475000X-0.250000X-0.475000X0.250000X-0.475000X0*%
%ADD15R,2.000000X1.800000*%
%ADD16RoundRect,0.250000X0.475000X-0.250000X0.475000X0.250000X-0.475000X0.250000X-0.475000X-0.250000X0*%
%ADD17RoundRect,0.250000X0.450000X-0.262500X0.450000X0.262500X-0.450000X0.262500X-0.450000X-0.262500X0*%
%ADD18RoundRect,0.250000X-0.250000X-0.475000X0.250000X-0.475000X0.250000X0.475000X-0.250000X0.475000X0*%
%ADD19R,1.500000X2.000000*%
%ADD20R,3.800000X2.000000*%
%ADD21RoundRect,0.150000X0.150000X-0.587500X0.150000X0.587500X-0.150000X0.587500X-0.150000X-0.587500X0*%
%ADD22RoundRect,0.250000X-0.270000X-0.270000X0.270000X-0.270000X0.270000X0.270000X-0.270000X0.270000X0*%
%ADD23RoundRect,0.062500X-0.375000X-0.062500X0.375000X-0.062500X0.375000X0.062500X-0.375000X0.062500X0*%
%ADD24RoundRect,0.062500X-0.062500X-0.375000X0.062500X-0.375000X0.062500X0.375000X-0.062500X0.375000X0*%
G04 APERTURE END LIST*
D10*
%TO.C,R6*%
X153566500Y-102108000D03*
X151741500Y-102108000D03*
%TD*%
D11*
%TO.C,R16*%
X125833500Y-102108000D03*
X127658500Y-102108000D03*
%TD*%
D12*
%TO.C,C2*%
X136398000Y-82870000D03*
X136398000Y-84770000D03*
%TD*%
D11*
%TO.C,R17*%
X121769500Y-102108000D03*
X123594500Y-102108000D03*
%TD*%
D13*
%TO.C,R13*%
X150368000Y-90273500D03*
X150368000Y-92098500D03*
%TD*%
D14*
%TO.C,C7*%
X139380000Y-98044000D03*
X137480000Y-98044000D03*
%TD*%
D12*
%TO.C,C1*%
X149205525Y-82870000D03*
X149205525Y-84770000D03*
%TD*%
D15*
%TO.C,X1*%
X122460000Y-88646000D03*
X122460000Y-93726000D03*
X126460000Y-93726000D03*
X126460000Y-88646000D03*
%TD*%
D16*
%TO.C,C6*%
X129286000Y-94676000D03*
X129286000Y-92776000D03*
%TD*%
D17*
%TO.C,R12*%
X152654000Y-92098500D03*
X152654000Y-90273500D03*
%TD*%
%TO.C,R3*%
X154940000Y-98702500D03*
X154940000Y-96877500D03*
%TD*%
D10*
%TO.C,R7*%
X149502500Y-102108000D03*
X147677500Y-102108000D03*
%TD*%
D17*
%TO.C,R2*%
X149205525Y-79412629D03*
X149205525Y-77587629D03*
%TD*%
D12*
%TO.C,C5*%
X129286000Y-88204000D03*
X129286000Y-90104000D03*
%TD*%
%TO.C,C3*%
X138684000Y-82870000D03*
X138684000Y-84770000D03*
%TD*%
D18*
%TO.C,C8*%
X146370000Y-92202000D03*
X148270000Y-92202000D03*
%TD*%
D11*
%TO.C,R14*%
X133961500Y-102108000D03*
X135786500Y-102108000D03*
%TD*%
D19*
%TO.C,U2*%
X141464000Y-84430000D03*
D20*
X143764000Y-78130000D03*
D19*
X143764000Y-84430000D03*
X146064000Y-84430000D03*
%TD*%
D10*
%TO.C,R9*%
X148994500Y-88138000D03*
X147169500Y-88138000D03*
%TD*%
D17*
%TO.C,R4*%
X157480000Y-98702500D03*
X157480000Y-96877500D03*
%TD*%
D12*
%TO.C,C4*%
X125349000Y-82616000D03*
X125349000Y-84516000D03*
%TD*%
D14*
%TO.C,C9*%
X134300000Y-87630000D03*
X132400000Y-87630000D03*
%TD*%
D17*
%TO.C,R1*%
X151892000Y-84732500D03*
X151892000Y-82907500D03*
%TD*%
D21*
%TO.C,Q1*%
X151450000Y-79677500D03*
X153350000Y-79677500D03*
X152400000Y-77802500D03*
%TD*%
D19*
%TO.C,U3*%
X129018000Y-84430000D03*
X131318000Y-84430000D03*
D20*
X131318000Y-78130000D03*
D19*
X133618000Y-84430000D03*
%TD*%
D22*
%TO.C,U1*%
X137257000Y-93101000D03*
X139837000Y-90521000D03*
X141127000Y-90521000D03*
X139837000Y-91811000D03*
X138547000Y-91811000D03*
X141127000Y-94391000D03*
X141127000Y-93101000D03*
X138547000Y-93101000D03*
X141127000Y-91811000D03*
X139837000Y-93101000D03*
X137257000Y-94391000D03*
X138547000Y-90521000D03*
X138547000Y-94391000D03*
X139837000Y-94391000D03*
X137257000Y-90521000D03*
X137257000Y-91811000D03*
D23*
X135754500Y-89706000D03*
X135754500Y-90206000D03*
X135754500Y-90706000D03*
X135754500Y-91206000D03*
X135754500Y-91706000D03*
X135754500Y-92206000D03*
X135754500Y-92706000D03*
X135754500Y-93206000D03*
X135754500Y-93706000D03*
X135754500Y-94206000D03*
X135754500Y-94706000D03*
X135754500Y-95206000D03*
D24*
X136442000Y-95893500D03*
X136942000Y-95893500D03*
X137442000Y-95893500D03*
X137942000Y-95893500D03*
X138442000Y-95893500D03*
X138942000Y-95893500D03*
X139442000Y-95893500D03*
X139942000Y-95893500D03*
X140442000Y-95893500D03*
X140942000Y-95893500D03*
X141442000Y-95893500D03*
X141942000Y-95893500D03*
D23*
X142629500Y-95206000D03*
X142629500Y-94706000D03*
X142629500Y-94206000D03*
X142629500Y-93706000D03*
X142629500Y-93206000D03*
X142629500Y-92706000D03*
X142629500Y-92206000D03*
X142629500Y-91706000D03*
X142629500Y-91206000D03*
X142629500Y-90706000D03*
X142629500Y-90206000D03*
X142629500Y-89706000D03*
D24*
X141942000Y-89018500D03*
X141442000Y-89018500D03*
X140942000Y-89018500D03*
X140442000Y-89018500D03*
X139942000Y-89018500D03*
X139442000Y-89018500D03*
X138942000Y-89018500D03*
X138442000Y-89018500D03*
X137942000Y-89018500D03*
X137442000Y-89018500D03*
X136942000Y-89018500D03*
X136442000Y-89018500D03*
%TD*%
D11*
%TO.C,R15*%
X129897500Y-102108000D03*
X131722500Y-102108000D03*
%TD*%
D10*
%TO.C,R8*%
X152804500Y-88138000D03*
X150979500Y-88138000D03*
%TD*%
%TO.C,R11*%
X139874000Y-102108000D03*
X138049000Y-102108000D03*
%TD*%
D11*
%TO.C,R18*%
X117705500Y-102108000D03*
X119530500Y-102108000D03*
%TD*%
D10*
%TO.C,R10*%
X143938000Y-102108000D03*
X142113000Y-102108000D03*
%TD*%
%TO.C,R5*%
X157630500Y-102108000D03*
X155805500Y-102108000D03*
%TD*%
M02*
