%FSLAX45Y45*%
G04 Gerber Fmt 4.5, Leading zero omitted, Abs format (unit mm)*
G04 Created by KiCad (PCBNEW (6.0.5)) date 2023-05-04 10:03:02*
%MOMM*%
%LPD*%
G01*
G04 APERTURE LIST*
%TA.AperFunction,Profile*%
%ADD10C,0.100000*%
%TD*%
%ADD11C,0.200000*%
G04 APERTURE END LIST*
D10*
X11595100Y-7642900D02*
X15938500Y-7642900D01*
X15938500Y-7642900D02*
X15938500Y-10779800D01*
X15938500Y-10779800D02*
X11595100Y-10779800D01*
X11595100Y-10779800D02*
X11595100Y-7642900D01*
D11*
X11847719Y-11095276D02*
X11847719Y-10895276D01*
X11895338Y-10895276D01*
X11923909Y-10904800D01*
X11942957Y-10923848D01*
X11952481Y-10942895D01*
X11962005Y-10980990D01*
X11962005Y-11009562D01*
X11952481Y-11047657D01*
X11942957Y-11066705D01*
X11923909Y-11085752D01*
X11895338Y-11095276D01*
X11847719Y-11095276D01*
X12047719Y-11095276D02*
X12047719Y-10961943D01*
X12047719Y-11000038D02*
X12057243Y-10980990D01*
X12066767Y-10971467D01*
X12085814Y-10961943D01*
X12104862Y-10961943D01*
X12171528Y-11095276D02*
X12171528Y-10961943D01*
X12171528Y-10895276D02*
X12162005Y-10904800D01*
X12171528Y-10914324D01*
X12181052Y-10904800D01*
X12171528Y-10895276D01*
X12171528Y-10914324D01*
X12295338Y-11095276D02*
X12276290Y-11085752D01*
X12266767Y-11066705D01*
X12266767Y-10895276D01*
X12400100Y-11095276D02*
X12381052Y-11085752D01*
X12371528Y-11066705D01*
X12371528Y-10895276D01*
X12628671Y-11095276D02*
X12628671Y-10895276D01*
X12695338Y-11038133D01*
X12762005Y-10895276D01*
X12762005Y-11095276D01*
X12942957Y-11095276D02*
X12942957Y-10990514D01*
X12933433Y-10971467D01*
X12914386Y-10961943D01*
X12876290Y-10961943D01*
X12857243Y-10971467D01*
X12942957Y-11085752D02*
X12923909Y-11095276D01*
X12876290Y-11095276D01*
X12857243Y-11085752D01*
X12847719Y-11066705D01*
X12847719Y-11047657D01*
X12857243Y-11028610D01*
X12876290Y-11019086D01*
X12923909Y-11019086D01*
X12942957Y-11009562D01*
X13038195Y-10961943D02*
X13038195Y-11161943D01*
X13038195Y-10971467D02*
X13057243Y-10961943D01*
X13095338Y-10961943D01*
X13114386Y-10971467D01*
X13123909Y-10980990D01*
X13133433Y-11000038D01*
X13133433Y-11057181D01*
X13123909Y-11076229D01*
X13114386Y-11085752D01*
X13095338Y-11095276D01*
X13057243Y-11095276D01*
X13038195Y-11085752D01*
X13219148Y-11076229D02*
X13228671Y-11085752D01*
X13219148Y-11095276D01*
X13209624Y-11085752D01*
X13219148Y-11076229D01*
X13219148Y-11095276D01*
X13219148Y-10971467D02*
X13228671Y-10980990D01*
X13219148Y-10990514D01*
X13209624Y-10980990D01*
X13219148Y-10971467D01*
X13219148Y-10990514D01*
M02*
