%TF.GenerationSoftware,KiCad,Pcbnew,(6.0.5)*%
%TF.CreationDate,2023-05-04T10:00:39-06:00*%
%TF.ProjectId,NES_JP_MOD,4e45535f-4a50-45f4-9d4f-442e6b696361,rev?*%
%TF.SameCoordinates,Original*%
%TF.FileFunction,Copper,L1,Top*%
%TF.FilePolarity,Positive*%
%FSLAX46Y46*%
G04 Gerber Fmt 4.6, Leading zero omitted, Abs format (unit mm)*
G04 Created by KiCad (PCBNEW (6.0.5)) date 2023-05-04 10:00:39*
%MOMM*%
%LPD*%
G01*
G04 APERTURE LIST*
G04 Aperture macros list*
%AMRoundRect*
0 Rectangle with rounded corners*
0 $1 Rounding radius*
0 $2 $3 $4 $5 $6 $7 $8 $9 X,Y pos of 4 corners*
0 Add a 4 corners polygon primitive as box body*
4,1,4,$2,$3,$4,$5,$6,$7,$8,$9,$2,$3,0*
0 Add four circle primitives for the rounded corners*
1,1,$1+$1,$2,$3*
1,1,$1+$1,$4,$5*
1,1,$1+$1,$6,$7*
1,1,$1+$1,$8,$9*
0 Add four rect primitives between the rounded corners*
20,1,$1+$1,$2,$3,$4,$5,0*
20,1,$1+$1,$4,$5,$6,$7,0*
20,1,$1+$1,$6,$7,$8,$9,0*
20,1,$1+$1,$8,$9,$2,$3,0*%
G04 Aperture macros list end*
%TA.AperFunction,SMDPad,CuDef*%
%ADD10RoundRect,0.250000X0.262500X0.450000X-0.262500X0.450000X-0.262500X-0.450000X0.262500X-0.450000X0*%
%TD*%
%TA.AperFunction,SMDPad,CuDef*%
%ADD11RoundRect,0.250000X-0.262500X-0.450000X0.262500X-0.450000X0.262500X0.450000X-0.262500X0.450000X0*%
%TD*%
%TA.AperFunction,SMDPad,CuDef*%
%ADD12RoundRect,0.250000X-0.475000X0.250000X-0.475000X-0.250000X0.475000X-0.250000X0.475000X0.250000X0*%
%TD*%
%TA.AperFunction,SMDPad,CuDef*%
%ADD13R,2.000000X2.000000*%
%TD*%
%TA.AperFunction,SMDPad,CuDef*%
%ADD14RoundRect,0.250000X-0.450000X0.262500X-0.450000X-0.262500X0.450000X-0.262500X0.450000X0.262500X0*%
%TD*%
%TA.AperFunction,SMDPad,CuDef*%
%ADD15RoundRect,0.250000X0.250000X0.475000X-0.250000X0.475000X-0.250000X-0.475000X0.250000X-0.475000X0*%
%TD*%
%TA.AperFunction,SMDPad,CuDef*%
%ADD16R,2.000000X1.800000*%
%TD*%
%TA.AperFunction,SMDPad,CuDef*%
%ADD17RoundRect,0.250000X0.475000X-0.250000X0.475000X0.250000X-0.475000X0.250000X-0.475000X-0.250000X0*%
%TD*%
%TA.AperFunction,SMDPad,CuDef*%
%ADD18RoundRect,0.250000X0.450000X-0.262500X0.450000X0.262500X-0.450000X0.262500X-0.450000X-0.262500X0*%
%TD*%
%TA.AperFunction,SMDPad,CuDef*%
%ADD19RoundRect,0.250000X-0.250000X-0.475000X0.250000X-0.475000X0.250000X0.475000X-0.250000X0.475000X0*%
%TD*%
%TA.AperFunction,SMDPad,CuDef*%
%ADD20R,1.500000X2.000000*%
%TD*%
%TA.AperFunction,SMDPad,CuDef*%
%ADD21R,3.800000X2.000000*%
%TD*%
%TA.AperFunction,SMDPad,CuDef*%
%ADD22RoundRect,0.150000X0.150000X-0.587500X0.150000X0.587500X-0.150000X0.587500X-0.150000X-0.587500X0*%
%TD*%
%TA.AperFunction,SMDPad,CuDef*%
%ADD23RoundRect,0.062500X-0.375000X-0.062500X0.375000X-0.062500X0.375000X0.062500X-0.375000X0.062500X0*%
%TD*%
%TA.AperFunction,SMDPad,CuDef*%
%ADD24RoundRect,0.062500X-0.062500X-0.375000X0.062500X-0.375000X0.062500X0.375000X-0.062500X0.375000X0*%
%TD*%
%TA.AperFunction,SMDPad,CuDef*%
%ADD25R,5.150000X5.150000*%
%TD*%
%TA.AperFunction,ComponentPad*%
%ADD26R,1.700000X1.700000*%
%TD*%
%TA.AperFunction,ComponentPad*%
%ADD27O,1.700000X1.700000*%
%TD*%
%TA.AperFunction,ViaPad*%
%ADD28C,0.800000*%
%TD*%
%TA.AperFunction,Conductor*%
%ADD29C,1.000000*%
%TD*%
%TA.AperFunction,Conductor*%
%ADD30C,0.600000*%
%TD*%
%TA.AperFunction,Conductor*%
%ADD31C,0.200000*%
%TD*%
%TA.AperFunction,Conductor*%
%ADD32C,0.300000*%
%TD*%
%TA.AperFunction,Conductor*%
%ADD33C,0.250000*%
%TD*%
%TA.AperFunction,Conductor*%
%ADD34C,0.400000*%
%TD*%
G04 APERTURE END LIST*
D10*
%TO.P,R6,1*%
%TO.N,+3V3*%
X153566500Y-102108000D03*
%TO.P,R6,2*%
%TO.N,/BTN8*%
X151741500Y-102108000D03*
%TD*%
D11*
%TO.P,R16,1*%
%TO.N,+3V3*%
X125833500Y-102108000D03*
%TO.P,R16,2*%
%TO.N,/BTN2*%
X127658500Y-102108000D03*
%TD*%
D12*
%TO.P,C2,1*%
%TO.N,+5V*%
X136398000Y-82870000D03*
%TO.P,C2,2*%
%TO.N,GND*%
X136398000Y-84770000D03*
%TD*%
D13*
%TO.P,TP6,1,1*%
%TO.N,/BTN4*%
X134874000Y-105664000D03*
%TD*%
D11*
%TO.P,R17,1*%
%TO.N,+3V3*%
X121769500Y-102108000D03*
%TO.P,R17,2*%
%TO.N,/BTN1*%
X123594500Y-102108000D03*
%TD*%
D14*
%TO.P,R13,1*%
%TO.N,/LATCH_DIV*%
X150368000Y-90273500D03*
%TO.P,R13,2*%
%TO.N,GND*%
X150368000Y-92098500D03*
%TD*%
D15*
%TO.P,C7,1*%
%TO.N,+3V3*%
X139380000Y-98044000D03*
%TO.P,C7,2*%
%TO.N,GND*%
X137480000Y-98044000D03*
%TD*%
D12*
%TO.P,C1,1*%
%TO.N,+5V*%
X149205525Y-82870000D03*
%TO.P,C1,2*%
%TO.N,GND*%
X149205525Y-84770000D03*
%TD*%
D16*
%TO.P,X1,1,EN*%
%TO.N,unconnected-(X1-Pad1)*%
X122460000Y-88646000D03*
%TO.P,X1,2,GND*%
%TO.N,GND*%
X122460000Y-93726000D03*
%TO.P,X1,3,OUT*%
%TO.N,/CLK*%
X126460000Y-93726000D03*
%TO.P,X1,4,Vdd*%
%TO.N,+3V3*%
X126460000Y-88646000D03*
%TD*%
D13*
%TO.P,TP10,1,1*%
%TO.N,/BTN8*%
X152146000Y-105664000D03*
%TD*%
D17*
%TO.P,C6,1*%
%TO.N,+3V3*%
X129286000Y-94676000D03*
%TO.P,C6,2*%
%TO.N,GND*%
X129286000Y-92776000D03*
%TD*%
D18*
%TO.P,R12,1*%
%TO.N,/NES_LATCH*%
X152654000Y-92098500D03*
%TO.P,R12,2*%
%TO.N,/LATCH_DIV*%
X152654000Y-90273500D03*
%TD*%
D13*
%TO.P,TP11,1,1*%
%TO.N,/BTN9*%
X155956000Y-105664000D03*
%TD*%
D18*
%TO.P,R3,1*%
%TO.N,+3V3*%
X154940000Y-98702500D03*
%TO.P,R3,2*%
%TO.N,/BTN11*%
X154940000Y-96877500D03*
%TD*%
D10*
%TO.P,R7,1*%
%TO.N,+3V3*%
X149502500Y-102108000D03*
%TO.P,R7,2*%
%TO.N,/BTN7*%
X147677500Y-102108000D03*
%TD*%
D18*
%TO.P,R2,1*%
%TO.N,+5V*%
X149205525Y-79412629D03*
%TO.P,R2,2*%
%TO.N,/NES_DATA*%
X149205525Y-77587629D03*
%TD*%
D13*
%TO.P,TP4,1,1*%
%TO.N,/BTN2*%
X127254000Y-105664000D03*
%TD*%
D12*
%TO.P,C5,1*%
%TO.N,+3V3*%
X129286000Y-88204000D03*
%TO.P,C5,2*%
%TO.N,GND*%
X129286000Y-90104000D03*
%TD*%
%TO.P,C3,1*%
%TO.N,+1V8*%
X138684000Y-82870000D03*
%TO.P,C3,2*%
%TO.N,GND*%
X138684000Y-84770000D03*
%TD*%
D19*
%TO.P,C8,1*%
%TO.N,+1V8*%
X146370000Y-92202000D03*
%TO.P,C8,2*%
%TO.N,GND*%
X148270000Y-92202000D03*
%TD*%
D11*
%TO.P,R14,1*%
%TO.N,+3V3*%
X133961500Y-102108000D03*
%TO.P,R14,2*%
%TO.N,/BTN4*%
X135786500Y-102108000D03*
%TD*%
D13*
%TO.P,TP9,1,1*%
%TO.N,/BTN7*%
X148336000Y-105664000D03*
%TD*%
D20*
%TO.P,U2,1,GND*%
%TO.N,GND*%
X141464000Y-84430000D03*
D21*
%TO.P,U2,2,VO*%
%TO.N,+1V8*%
X143764000Y-78130000D03*
D20*
X143764000Y-84430000D03*
%TO.P,U2,3,VI*%
%TO.N,+5V*%
X146064000Y-84430000D03*
%TD*%
D13*
%TO.P,TP5,1,1*%
%TO.N,/BTN3*%
X131064000Y-105664000D03*
%TD*%
D10*
%TO.P,R9,1*%
%TO.N,/CLK_DIV*%
X148994500Y-88138000D03*
%TO.P,R9,2*%
%TO.N,GND*%
X147169500Y-88138000D03*
%TD*%
D13*
%TO.P,TP8,1,1*%
%TO.N,/BTN6*%
X143025500Y-105664000D03*
%TD*%
D18*
%TO.P,R4,1*%
%TO.N,+3V3*%
X157480000Y-98702500D03*
%TO.P,R4,2*%
%TO.N,/BTN10*%
X157480000Y-96877500D03*
%TD*%
D12*
%TO.P,C4,1*%
%TO.N,+3V3*%
X125349000Y-82616000D03*
%TO.P,C4,2*%
%TO.N,GND*%
X125349000Y-84516000D03*
%TD*%
D13*
%TO.P,TP12,1,1*%
%TO.N,/BTN10*%
X157480000Y-93980000D03*
%TD*%
D15*
%TO.P,C9,1*%
%TO.N,+3V3*%
X134300000Y-87630000D03*
%TO.P,C9,2*%
%TO.N,GND*%
X132400000Y-87630000D03*
%TD*%
D13*
%TO.P,TP3,1,1*%
%TO.N,/BTN1*%
X123444000Y-105664000D03*
%TD*%
D18*
%TO.P,R1,1*%
%TO.N,/DATA_Q*%
X151892000Y-84732500D03*
%TO.P,R1,2*%
%TO.N,Net-(Q1-Pad1)*%
X151892000Y-82907500D03*
%TD*%
D13*
%TO.P,TP16,1,1*%
%TO.N,+5V*%
X124968000Y-78740000D03*
%TD*%
%TO.P,TP2,1,1*%
%TO.N,/BTN0*%
X119634000Y-105664000D03*
%TD*%
D22*
%TO.P,Q1,1,B*%
%TO.N,Net-(Q1-Pad1)*%
X151450000Y-79677500D03*
%TO.P,Q1,2,E*%
%TO.N,GND*%
X153350000Y-79677500D03*
%TO.P,Q1,3,C*%
%TO.N,/NES_DATA*%
X152400000Y-77802500D03*
%TD*%
D20*
%TO.P,U3,1,GND*%
%TO.N,GND*%
X129018000Y-84430000D03*
%TO.P,U3,2,VO*%
%TO.N,+3V3*%
X131318000Y-84430000D03*
D21*
X131318000Y-78130000D03*
D20*
%TO.P,U3,3,VI*%
%TO.N,+5V*%
X133618000Y-84430000D03*
%TD*%
D23*
%TO.P,U1,1,I/O*%
%TO.N,/CLK*%
X135754500Y-89706000D03*
%TO.P,U1,2,I/O*%
%TO.N,unconnected-(U1-Pad2)*%
X135754500Y-90206000D03*
%TO.P,U1,3,VAUX*%
%TO.N,+3V3*%
X135754500Y-90706000D03*
%TO.P,U1,4,I/O*%
%TO.N,/BTN0*%
X135754500Y-91206000D03*
%TO.P,U1,5,I/O*%
%TO.N,/BTN1*%
X135754500Y-91706000D03*
%TO.P,U1,6,I/O*%
%TO.N,/BTN2*%
X135754500Y-92206000D03*
%TO.P,U1,7,I/O*%
%TO.N,/BTN3*%
X135754500Y-92706000D03*
%TO.P,U1,8,I/O*%
%TO.N,/BTN4*%
X135754500Y-93206000D03*
%TO.P,U1,9,I/O*%
%TO.N,/BTN5*%
X135754500Y-93706000D03*
%TO.P,U1,10,I/O*%
%TO.N,/BTN6*%
X135754500Y-94206000D03*
%TO.P,U1,11,I/O*%
%TO.N,unconnected-(U1-Pad11)*%
X135754500Y-94706000D03*
%TO.P,U1,12,I/O*%
%TO.N,unconnected-(U1-Pad12)*%
X135754500Y-95206000D03*
D24*
%TO.P,U1,13,I/O*%
%TO.N,unconnected-(U1-Pad13)*%
X136442000Y-95893500D03*
%TO.P,U1,14,I/O*%
%TO.N,unconnected-(U1-Pad14)*%
X136942000Y-95893500D03*
%TO.P,U1,15,I/O*%
%TO.N,unconnected-(U1-Pad15)*%
X137442000Y-95893500D03*
%TO.P,U1,16,GND*%
%TO.N,GND*%
X137942000Y-95893500D03*
%TO.P,U1,17,I/O*%
%TO.N,unconnected-(U1-Pad17)*%
X138442000Y-95893500D03*
%TO.P,U1,18,I/O*%
%TO.N,unconnected-(U1-Pad18)*%
X138942000Y-95893500D03*
%TO.P,U1,19,Vccio1*%
%TO.N,+3V3*%
X139442000Y-95893500D03*
%TO.P,U1,20,I/O*%
%TO.N,unconnected-(U1-Pad20)*%
X139942000Y-95893500D03*
%TO.P,U1,21,TDI*%
%TO.N,/TDI*%
X140442000Y-95893500D03*
%TO.P,U1,22,TMS*%
%TO.N,/TMS*%
X140942000Y-95893500D03*
%TO.P,U1,23,TCK*%
%TO.N,/TCK*%
X141442000Y-95893500D03*
%TO.P,U1,24,I/O*%
%TO.N,/BTN7*%
X141942000Y-95893500D03*
D23*
%TO.P,U1,25,I/O*%
%TO.N,/BTN8*%
X142629500Y-95206000D03*
%TO.P,U1,26,I/O*%
%TO.N,/BTN9*%
X142629500Y-94706000D03*
%TO.P,U1,27,I/O*%
%TO.N,/BTN10*%
X142629500Y-94206000D03*
%TO.P,U1,28,I/O*%
%TO.N,/BTN11*%
X142629500Y-93706000D03*
%TO.P,U1,29,Vcc*%
%TO.N,+1V8*%
X142629500Y-93206000D03*
%TO.P,U1,30,I/O*%
%TO.N,unconnected-(U1-Pad30)*%
X142629500Y-92706000D03*
%TO.P,U1,31,GND*%
%TO.N,GND*%
X142629500Y-92206000D03*
%TO.P,U1,32,I/O*%
%TO.N,unconnected-(U1-Pad32)*%
X142629500Y-91706000D03*
%TO.P,U1,33,I/O*%
%TO.N,unconnected-(U1-Pad33)*%
X142629500Y-91206000D03*
%TO.P,U1,34,I/O*%
%TO.N,/LATCH_DIV*%
X142629500Y-90706000D03*
%TO.P,U1,35,I/O*%
%TO.N,/CLK_DIV*%
X142629500Y-90206000D03*
%TO.P,U1,36,I/O*%
%TO.N,/DATA_Q*%
X142629500Y-89706000D03*
D24*
%TO.P,U1,37,I/O*%
%TO.N,unconnected-(U1-Pad37)*%
X141942000Y-89018500D03*
%TO.P,U1,38,I/O*%
%TO.N,unconnected-(U1-Pad38)*%
X141442000Y-89018500D03*
%TO.P,U1,39,I/O*%
%TO.N,unconnected-(U1-Pad39)*%
X140942000Y-89018500D03*
%TO.P,U1,40,TDO*%
%TO.N,/TDO*%
X140442000Y-89018500D03*
%TO.P,U1,41,GND*%
%TO.N,GND*%
X139942000Y-89018500D03*
%TO.P,U1,42,Vccio2*%
%TO.N,+3V3*%
X139442000Y-89018500D03*
%TO.P,U1,43,I/O*%
%TO.N,unconnected-(U1-Pad43)*%
X138942000Y-89018500D03*
%TO.P,U1,44,I/O*%
%TO.N,unconnected-(U1-Pad44)*%
X138442000Y-89018500D03*
%TO.P,U1,45,I/O*%
%TO.N,unconnected-(U1-Pad45)*%
X137942000Y-89018500D03*
%TO.P,U1,46,I/O*%
%TO.N,unconnected-(U1-Pad46)*%
X137442000Y-89018500D03*
%TO.P,U1,47,I/O*%
%TO.N,unconnected-(U1-Pad47)*%
X136942000Y-89018500D03*
%TO.P,U1,48,I/O*%
%TO.N,unconnected-(U1-Pad48)*%
X136442000Y-89018500D03*
D25*
%TO.P,U1,49,GND*%
%TO.N,GND*%
X139192000Y-92456000D03*
%TD*%
D13*
%TO.P,TP13,1,1*%
%TO.N,/BTN11*%
X157480000Y-90170000D03*
%TD*%
D26*
%TO.P,J1,1,Pin_1*%
%TO.N,+3V3*%
X118110000Y-83820000D03*
D27*
%TO.P,J1,2,Pin_2*%
%TO.N,GND*%
X118110000Y-86360000D03*
%TO.P,J1,3,Pin_3*%
%TO.N,/TCK*%
X118110000Y-88900000D03*
%TO.P,J1,4,Pin_4*%
%TO.N,/TDO*%
X118110000Y-91440000D03*
%TO.P,J1,5,Pin_5*%
%TO.N,/TDI*%
X118110000Y-93980000D03*
%TO.P,J1,6,Pin_6*%
%TO.N,/TMS*%
X118110000Y-96520000D03*
%TD*%
D11*
%TO.P,R15,1*%
%TO.N,+3V3*%
X129897500Y-102108000D03*
%TO.P,R15,2*%
%TO.N,/BTN3*%
X131722500Y-102108000D03*
%TD*%
D13*
%TO.P,TP7,1,1*%
%TO.N,/BTN5*%
X139215500Y-105664000D03*
%TD*%
%TO.P,TP14,1,1*%
%TO.N,/NES_CLK*%
X157480000Y-82550000D03*
%TD*%
D10*
%TO.P,R8,1*%
%TO.N,/NES_CLK*%
X152804500Y-88138000D03*
%TO.P,R8,2*%
%TO.N,/CLK_DIV*%
X150979500Y-88138000D03*
%TD*%
%TO.P,R11,1*%
%TO.N,+3V3*%
X139874000Y-102108000D03*
%TO.P,R11,2*%
%TO.N,/BTN5*%
X138049000Y-102108000D03*
%TD*%
D11*
%TO.P,R18,1*%
%TO.N,+3V3*%
X117705500Y-102108000D03*
%TO.P,R18,2*%
%TO.N,/BTN0*%
X119530500Y-102108000D03*
%TD*%
D10*
%TO.P,R10,1*%
%TO.N,+3V3*%
X143938000Y-102108000D03*
%TO.P,R10,2*%
%TO.N,/BTN6*%
X142113000Y-102108000D03*
%TD*%
D13*
%TO.P,TP15,1,1*%
%TO.N,/NES_LATCH*%
X157480000Y-86360000D03*
%TD*%
%TO.P,TP17,1,1*%
%TO.N,GND*%
X120650000Y-78740000D03*
%TD*%
%TO.P,TP1,1,1*%
%TO.N,/NES_DATA*%
X157480000Y-78740000D03*
%TD*%
D10*
%TO.P,R5,1*%
%TO.N,+3V3*%
X157630500Y-102108000D03*
%TO.P,R5,2*%
%TO.N,/BTN9*%
X155805500Y-102108000D03*
%TD*%
D28*
%TO.N,+5V*%
X127127000Y-80264000D03*
%TO.N,GND*%
X120650000Y-82550000D03*
%TO.N,+5V*%
X128524000Y-80264000D03*
X136398000Y-81280000D03*
X145542000Y-80518000D03*
%TO.N,GND*%
X136398000Y-86233000D03*
X120523000Y-87376000D03*
X120523000Y-90678000D03*
X138684000Y-86233000D03*
X129286000Y-91440000D03*
X153416000Y-81407000D03*
X148209000Y-93980000D03*
X130937000Y-87630000D03*
X122428000Y-95758000D03*
X150368000Y-93599000D03*
X136017000Y-98044000D03*
X127000000Y-84455000D03*
X120650000Y-81026000D03*
X144018000Y-91567000D03*
X147828000Y-86233000D03*
%TO.N,+1V8*%
X144780000Y-92710000D03*
X144780000Y-86487000D03*
%TO.N,/TCK*%
X146431000Y-99187000D03*
%TO.N,/TDO*%
X140589000Y-86995000D03*
%TO.N,/TDI*%
X143256000Y-98552000D03*
%TO.N,/TMS*%
X144780000Y-99187000D03*
%TO.N,+3V3*%
X125222000Y-103632000D03*
X117348000Y-103886000D03*
X133096000Y-103632000D03*
X157988000Y-103632000D03*
X145057500Y-103632000D03*
X140993500Y-103632000D03*
X129032000Y-103632000D03*
X150368000Y-103632000D03*
X121412000Y-103632000D03*
X153924000Y-103632000D03*
%TD*%
D29*
%TO.N,GND*%
X120650000Y-78740000D02*
X120650000Y-82550000D01*
D30*
%TO.N,+5V*%
X136398000Y-82870000D02*
X136398000Y-81280000D01*
X149205525Y-82870000D02*
X147624000Y-82870000D01*
X126492000Y-80264000D02*
X128524000Y-80264000D01*
X135178000Y-82870000D02*
X133618000Y-84430000D01*
X149205525Y-79412629D02*
X149205525Y-82870000D01*
X146064000Y-81040000D02*
X145542000Y-80518000D01*
X146064000Y-84430000D02*
X146064000Y-81040000D01*
X136398000Y-82870000D02*
X135178000Y-82870000D01*
X124968000Y-78740000D02*
X126492000Y-80264000D01*
X147624000Y-82870000D02*
X146064000Y-84430000D01*
%TO.N,GND*%
X125349000Y-84516000D02*
X126939000Y-84516000D01*
X126939000Y-84516000D02*
X127000000Y-84455000D01*
X129286000Y-90104000D02*
X129286000Y-91440000D01*
D31*
X139942000Y-87491000D02*
X138684000Y-86233000D01*
D30*
X149205525Y-84770000D02*
X149205525Y-84855475D01*
X148270000Y-92202000D02*
X148270000Y-93919000D01*
D31*
X137942000Y-95893500D02*
X137942000Y-97582000D01*
D30*
X150368000Y-92098500D02*
X150368000Y-93599000D01*
X122428000Y-95758000D02*
X122428000Y-93758000D01*
X129018000Y-84430000D02*
X127025000Y-84430000D01*
X137480000Y-98044000D02*
X136017000Y-98044000D01*
X149205525Y-84855475D02*
X147828000Y-86233000D01*
X120523000Y-87376000D02*
X120523000Y-90678000D01*
X127025000Y-84430000D02*
X127000000Y-84455000D01*
D31*
X139942000Y-89018500D02*
X139942000Y-91706000D01*
D30*
X122460000Y-93726000D02*
X122460000Y-93758000D01*
D31*
X137942000Y-93706000D02*
X139192000Y-92456000D01*
D30*
X148270000Y-93919000D02*
X148209000Y-93980000D01*
X147169500Y-88138000D02*
X147169500Y-86891500D01*
D31*
X139942000Y-89018500D02*
X139942000Y-87491000D01*
X143379000Y-92206000D02*
X144018000Y-91567000D01*
D30*
X138684000Y-84770000D02*
X141124000Y-84770000D01*
X129286000Y-92776000D02*
X129286000Y-91440000D01*
X132400000Y-87630000D02*
X130937000Y-87630000D01*
X138684000Y-84770000D02*
X138684000Y-86233000D01*
D31*
X142629500Y-92206000D02*
X143379000Y-92206000D01*
D30*
X122428000Y-93758000D02*
X122460000Y-93726000D01*
D31*
X137942000Y-97582000D02*
X137480000Y-98044000D01*
D30*
X153350000Y-81341000D02*
X153416000Y-81407000D01*
D31*
X139942000Y-91706000D02*
X139192000Y-92456000D01*
X142629500Y-92206000D02*
X139442000Y-92206000D01*
D30*
X153350000Y-79677500D02*
X153350000Y-81341000D01*
D31*
X137942000Y-95893500D02*
X137942000Y-93706000D01*
D30*
X147169500Y-86891500D02*
X147828000Y-86233000D01*
X136398000Y-84770000D02*
X136398000Y-86233000D01*
D31*
X139442000Y-92206000D02*
X139192000Y-92456000D01*
D30*
X141124000Y-84770000D02*
X141464000Y-84430000D01*
%TO.N,+1V8*%
X143764000Y-85471000D02*
X144780000Y-86487000D01*
X143764000Y-82042000D02*
X143764000Y-84430000D01*
X143764000Y-84430000D02*
X143764000Y-85471000D01*
X138684000Y-82423000D02*
X139319000Y-81788000D01*
D31*
X144284000Y-93206000D02*
X144780000Y-92710000D01*
X142629500Y-93206000D02*
X144284000Y-93206000D01*
D30*
X139319000Y-81788000D02*
X143510000Y-81788000D01*
X143764000Y-78130000D02*
X143764000Y-82042000D01*
D31*
X145288000Y-92202000D02*
X144780000Y-92710000D01*
D30*
X143510000Y-81788000D02*
X143764000Y-82042000D01*
X138684000Y-82870000D02*
X138684000Y-82423000D01*
D31*
X146370000Y-92202000D02*
X145288000Y-92202000D01*
%TO.N,/TCK*%
X144780000Y-96774000D02*
X146431000Y-98425000D01*
X141442000Y-95893500D02*
X141442000Y-96357000D01*
X141859000Y-96774000D02*
X144780000Y-96774000D01*
X141442000Y-96357000D02*
X141859000Y-96774000D01*
X146431000Y-98425000D02*
X146431000Y-99187000D01*
%TO.N,/TDO*%
X140442000Y-89018500D02*
X140442000Y-87142000D01*
X140442000Y-87142000D02*
X140589000Y-86995000D01*
%TO.N,/TDI*%
X142494000Y-97790000D02*
X143256000Y-98552000D01*
X140442000Y-96627000D02*
X141605000Y-97790000D01*
X140442000Y-95893500D02*
X140442000Y-96627000D01*
X141605000Y-97790000D02*
X142494000Y-97790000D01*
%TO.N,/TMS*%
X140942000Y-95893500D02*
X140942000Y-96422006D01*
X144544519Y-97173519D02*
X144780000Y-97409000D01*
X144780000Y-97409000D02*
X144780000Y-99187000D01*
X141693514Y-97173520D02*
X142113000Y-97173519D01*
X140942000Y-96422006D02*
X141693514Y-97173520D01*
X142113000Y-97173519D02*
X144544519Y-97173519D01*
%TO.N,/CLK*%
X130302000Y-93726000D02*
X126460000Y-93726000D01*
X135754500Y-89706000D02*
X131020000Y-89706000D01*
X130556000Y-90170000D02*
X130556000Y-93472000D01*
X131020000Y-89706000D02*
X130556000Y-90170000D01*
X130556000Y-93472000D02*
X130302000Y-93726000D01*
D30*
%TO.N,Net-(Q1-Pad1)*%
X151450000Y-82465500D02*
X151892000Y-82907500D01*
X151450000Y-79677500D02*
X151450000Y-82465500D01*
D32*
%TO.N,/NES_DATA*%
X152400000Y-77802500D02*
X149420396Y-77802500D01*
X149420396Y-77802500D02*
X149205525Y-77587629D01*
X157480000Y-78740000D02*
X156542500Y-77802500D01*
X156542500Y-77802500D02*
X152400000Y-77802500D01*
D31*
%TO.N,/DATA_Q*%
X148082000Y-87560862D02*
X150910362Y-84732500D01*
X142629500Y-89706000D02*
X147530000Y-89706000D01*
X147530000Y-89706000D02*
X148082000Y-89154000D01*
X150910362Y-84732500D02*
X151892000Y-84732500D01*
X148082000Y-89154000D02*
X148082000Y-87560862D01*
%TO.N,/BTN11*%
X142629500Y-93706000D02*
X145522000Y-93706000D01*
D32*
X154940000Y-92710000D02*
X154940000Y-96877500D01*
X157480000Y-90170000D02*
X154940000Y-92710000D01*
D31*
X154916500Y-96901000D02*
X154940000Y-96877500D01*
X145522000Y-93706000D02*
X148717000Y-96901000D01*
X148717000Y-96901000D02*
X154916500Y-96901000D01*
%TO.N,/BTN10*%
X156567500Y-97790000D02*
X157480000Y-96877500D01*
X145260000Y-94206000D02*
X148844000Y-97790000D01*
X142629500Y-94206000D02*
X145260000Y-94206000D01*
X156567500Y-97790000D02*
X148844000Y-97790000D01*
D33*
X157480000Y-96877500D02*
X157480000Y-93980000D01*
D31*
%TO.N,/BTN9*%
X154027500Y-100330000D02*
X155805500Y-102108000D01*
X142629500Y-94706000D02*
X145125000Y-94706000D01*
D30*
X155805500Y-105513500D02*
X155956000Y-105664000D01*
X155805500Y-102108000D02*
X155805500Y-105513500D01*
D31*
X145125000Y-94706000D02*
X150749000Y-100330000D01*
X150749000Y-100330000D02*
X154027500Y-100330000D01*
%TO.N,/BTN8*%
X142629500Y-95206000D02*
X144839500Y-95206000D01*
D30*
X151741500Y-102108000D02*
X151741500Y-105259500D01*
X151741500Y-105259500D02*
X152146000Y-105664000D01*
D31*
X144839500Y-95206000D02*
X151741500Y-102108000D01*
%TO.N,/BTN7*%
X147701000Y-98679000D02*
X147701000Y-102084500D01*
X144915500Y-95893500D02*
X147701000Y-98679000D01*
D30*
X147677500Y-105005500D02*
X148336000Y-105664000D01*
X147677500Y-102108000D02*
X147677500Y-105005500D01*
D31*
X147701000Y-102084500D02*
X147677500Y-102108000D01*
X141942000Y-95893500D02*
X144915500Y-95893500D01*
D32*
%TO.N,/NES_CLK*%
X155194000Y-82550000D02*
X157480000Y-82550000D01*
X152804500Y-88138000D02*
X152804500Y-87987500D01*
X152804500Y-87987500D02*
X153797000Y-86995000D01*
X153797000Y-86995000D02*
X153797000Y-83947000D01*
X153797000Y-83947000D02*
X155194000Y-82550000D01*
D30*
%TO.N,/CLK_DIV*%
X150979500Y-88138000D02*
X148994500Y-88138000D01*
D31*
X142629500Y-90206000D02*
X148427000Y-90206000D01*
X148427000Y-90206000D02*
X148971000Y-89662000D01*
X148971000Y-89662000D02*
X148971000Y-88161500D01*
X148971000Y-88161500D02*
X148994500Y-88138000D01*
%TO.N,/BTN6*%
X139681480Y-99676480D02*
X142113000Y-102108000D01*
D30*
X142113000Y-104751500D02*
X143025500Y-105664000D01*
D31*
X134257520Y-97681520D02*
X136252480Y-99676480D01*
X134257520Y-94469480D02*
X134257520Y-97681520D01*
X136252480Y-99676480D02*
X139681480Y-99676480D01*
X134521000Y-94206000D02*
X134257520Y-94469480D01*
X135754500Y-94206000D02*
X134521000Y-94206000D01*
D30*
X142113000Y-102108000D02*
X142113000Y-104751500D01*
%TO.N,/BTN5*%
X138049000Y-104497500D02*
X139215500Y-105664000D01*
D31*
X136906000Y-100076000D02*
X138049000Y-101219000D01*
X138049000Y-101219000D02*
X138049000Y-102108000D01*
X136086994Y-100076000D02*
X136906000Y-100076000D01*
X134259000Y-93706000D02*
X133858000Y-94107000D01*
D30*
X138049000Y-102108000D02*
X138049000Y-104497500D01*
D31*
X133858000Y-94107000D02*
X133858001Y-97847007D01*
X135754500Y-93706000D02*
X134259000Y-93706000D01*
X133858001Y-97847007D02*
X136086994Y-100076000D01*
D32*
%TO.N,/NES_LATCH*%
X154305000Y-87884000D02*
X155829000Y-86360000D01*
X152654000Y-92098500D02*
X153646500Y-92098500D01*
X153646500Y-92098500D02*
X154305000Y-91440000D01*
X155829000Y-86360000D02*
X157480000Y-86360000D01*
X154305000Y-91440000D02*
X154305000Y-87884000D01*
D30*
%TO.N,/LATCH_DIV*%
X150368000Y-90273500D02*
X152654000Y-90273500D01*
D31*
X142629500Y-90706000D02*
X149935500Y-90706000D01*
X149935500Y-90706000D02*
X150368000Y-90273500D01*
%TO.N,/BTN4*%
X133444046Y-93504954D02*
X133743000Y-93206000D01*
X135786500Y-102108000D02*
X135786500Y-100353500D01*
X133743000Y-93206000D02*
X135754500Y-93206000D01*
X133444046Y-98011046D02*
X133444046Y-93504954D01*
D30*
X135786500Y-102108000D02*
X135786500Y-104751500D01*
D31*
X135786500Y-100353500D02*
X133444046Y-98011046D01*
D30*
X135786500Y-104751500D02*
X134874000Y-105664000D01*
D31*
%TO.N,/BTN3*%
X132038509Y-95462509D02*
X132038509Y-101791991D01*
X135754500Y-92706000D02*
X133354000Y-92706000D01*
X133354000Y-92706000D02*
X133044526Y-93015474D01*
D30*
X131722500Y-105005500D02*
X131064000Y-105664000D01*
D31*
X133044526Y-93015474D02*
X133044526Y-94456492D01*
X132038509Y-101791991D02*
X131722500Y-102108000D01*
X133044526Y-94456492D02*
X132038509Y-95462509D01*
D30*
X131722500Y-102108000D02*
X131722500Y-105005500D01*
%TO.N,/BTN2*%
X127658500Y-102108000D02*
X127658500Y-105259500D01*
D31*
X132635023Y-92710000D02*
X132645006Y-92719983D01*
X132645006Y-94291006D02*
X129362973Y-97573039D01*
D30*
X127658500Y-105259500D02*
X127254000Y-105664000D01*
D31*
X132645006Y-92719983D02*
X132645006Y-94291006D01*
X135754500Y-92206000D02*
X133092000Y-92206000D01*
X129032000Y-97573039D02*
X127658500Y-98946539D01*
X132635023Y-92662977D02*
X132635023Y-92710000D01*
X129362973Y-97573039D02*
X129032000Y-97573039D01*
X127658500Y-98946539D02*
X127658500Y-102108000D01*
X133092000Y-92206000D02*
X132635023Y-92662977D01*
%TO.N,/BTN1*%
X123698000Y-100330000D02*
X123698000Y-102004500D01*
X123698000Y-102004500D02*
X123594500Y-102108000D01*
D30*
X123594500Y-105513500D02*
X123444000Y-105664000D01*
D31*
X132235503Y-94135503D02*
X129197486Y-97173520D01*
X132235503Y-92300497D02*
X132235503Y-94135503D01*
X132830000Y-91706000D02*
X132235503Y-92300497D01*
X135754500Y-91706000D02*
X132830000Y-91706000D01*
X126854480Y-97173520D02*
X123698000Y-100330000D01*
D30*
X123594500Y-102108000D02*
X123594500Y-105513500D01*
D31*
X129197486Y-97173520D02*
X126854480Y-97173520D01*
%TO.N,/BTN0*%
X129032000Y-96774000D02*
X124864500Y-96774000D01*
X132568000Y-91206000D02*
X131826000Y-91948000D01*
D30*
X119634000Y-102211500D02*
X119530500Y-102108000D01*
X119634000Y-105664000D02*
X119634000Y-102211500D01*
D31*
X131826000Y-93980000D02*
X129032000Y-96774000D01*
X124864500Y-96774000D02*
X119530500Y-102108000D01*
X135754500Y-91206000D02*
X132568000Y-91206000D01*
X131826000Y-91948000D02*
X131826000Y-93980000D01*
D34*
%TO.N,+3V3*%
X157480000Y-98702500D02*
X157630500Y-98853000D01*
D30*
X140970000Y-98044000D02*
X143891000Y-100965000D01*
X133985000Y-86233000D02*
X131699000Y-86233000D01*
X130810000Y-86360000D02*
X124968000Y-86360000D01*
D31*
X139442000Y-89018500D02*
X139442000Y-87626000D01*
D30*
X124460000Y-95758000D02*
X120650000Y-99568000D01*
X143938000Y-102108000D02*
X143938000Y-102512500D01*
D31*
X143891000Y-102061000D02*
X143938000Y-102108000D01*
D30*
X131318000Y-82296000D02*
X131318000Y-82804000D01*
D34*
X157480000Y-98702500D02*
X154940000Y-98702500D01*
D30*
X125833500Y-102108000D02*
X125833500Y-103020500D01*
X129286000Y-94676000D02*
X130199850Y-94676000D01*
X157630500Y-102108000D02*
X157630500Y-103274500D01*
X131130000Y-82616000D02*
X131318000Y-82804000D01*
X121769500Y-103274500D02*
X121412000Y-103632000D01*
X131155520Y-93720330D02*
X131155520Y-91094480D01*
X131572000Y-90678000D02*
X132080000Y-90678000D01*
X131318000Y-85852000D02*
X130810000Y-86360000D01*
X153566500Y-102108000D02*
X153566500Y-103274500D01*
X133961500Y-102766500D02*
X133096000Y-103632000D01*
X124460000Y-95758000D02*
X128204000Y-95758000D01*
X118110000Y-83820000D02*
X121412000Y-83820000D01*
X121769500Y-102108000D02*
X121769500Y-103274500D01*
X133961500Y-102108000D02*
X133961500Y-102766500D01*
X129897500Y-102108000D02*
X129897500Y-102766500D01*
X131318000Y-84430000D02*
X131318000Y-85852000D01*
D34*
X157630500Y-98853000D02*
X157630500Y-102108000D01*
D30*
X149502500Y-102108000D02*
X149502500Y-102766500D01*
D31*
X139442000Y-95893500D02*
X139442000Y-97982000D01*
D30*
X131155520Y-91094480D02*
X131572000Y-90678000D01*
X139380000Y-98044000D02*
X140970000Y-98044000D01*
X124968000Y-86360000D02*
X124460000Y-86868000D01*
X125833500Y-103020500D02*
X125222000Y-103632000D01*
D31*
X135754500Y-90706000D02*
X132108000Y-90706000D01*
D30*
X117705500Y-102108000D02*
X117705500Y-103528500D01*
X129897500Y-102766500D02*
X129032000Y-103632000D01*
X143938000Y-102512500D02*
X145057500Y-103632000D01*
X153566500Y-103274500D02*
X153924000Y-103632000D01*
X149502500Y-102766500D02*
X150368000Y-103632000D01*
X157630500Y-103274500D02*
X157988000Y-103632000D01*
X118110000Y-99568000D02*
X117705500Y-99972500D01*
X131699000Y-86233000D02*
X131318000Y-85852000D01*
X125349000Y-82616000D02*
X131130000Y-82616000D01*
X124460000Y-88646000D02*
X124460000Y-95758000D01*
D31*
X139442000Y-97982000D02*
X139380000Y-98044000D01*
D30*
X129286000Y-88204000D02*
X126902000Y-88204000D01*
X143891000Y-100965000D02*
X143891000Y-102061000D01*
X134300000Y-87630000D02*
X134300000Y-86548000D01*
D31*
X139442000Y-87626000D02*
X138811000Y-86995000D01*
X132108000Y-90706000D02*
X132080000Y-90678000D01*
D30*
X117705500Y-99972500D02*
X117705500Y-102108000D01*
D31*
X134935000Y-86995000D02*
X134300000Y-87630000D01*
D30*
X126460000Y-88646000D02*
X124460000Y-88646000D01*
X128204000Y-95758000D02*
X129286000Y-94676000D01*
X131318000Y-78130000D02*
X131318000Y-82296000D01*
X117705500Y-103528500D02*
X117348000Y-103886000D01*
X124460000Y-86868000D02*
X124460000Y-88646000D01*
X126902000Y-88204000D02*
X126460000Y-88646000D01*
X139874000Y-102108000D02*
X139874000Y-102512500D01*
X131318000Y-82804000D02*
X131318000Y-84430000D01*
X120650000Y-99568000D02*
X118110000Y-99568000D01*
D31*
X138811000Y-86995000D02*
X134935000Y-86995000D01*
D30*
X139874000Y-102512500D02*
X140993500Y-103632000D01*
X130199850Y-94676000D02*
X131155520Y-93720330D01*
X121412000Y-83820000D02*
X124460000Y-86868000D01*
X134300000Y-86548000D02*
X133985000Y-86233000D01*
%TD*%
M02*
